<mxfile host="app.diagrams.net" modified="2024-04-20T09:19:49.857Z" agent="Mozilla/5.0 (X11; Linux x86_64) AppleWebKit/537.36 (KHTML, like Gecko) Chrome/123.0.0.0 Safari/537.36" etag="3M6FmFCDbp4MWEQAqh2K" version="24.2.7" type="github">
  <diagram name="Page-1" id="cR0LgCzF0DMh1XOr5Aok">
    <mxGraphModel dx="1996" dy="861" grid="1" gridSize="10" guides="1" tooltips="1" connect="1" arrows="1" fold="1" page="1" pageScale="1" pageWidth="850" pageHeight="1100" math="0" shadow="0">
      <root>
        <mxCell id="0" />
        <mxCell id="1" parent="0" />
        <mxCell id="Px1lfEAKIi--y_GZq74K-4" value="" style="group;" vertex="1" connectable="0" parent="1">
          <mxGeometry x="-70" y="120" width="130" height="60" as="geometry" />
        </mxCell>
        <mxCell id="Px1lfEAKIi--y_GZq74K-2" value="Users" style="sketch=0;outlineConnect=0;fontColor=#232F3E;gradientColor=none;strokeColor=#232F3E;fillColor=#ffffff;dashed=0;verticalLabelPosition=bottom;verticalAlign=top;align=center;html=1;fontSize=12;fontStyle=0;aspect=fixed;shape=mxgraph.aws4.resourceIcon;resIcon=mxgraph.aws4.users;" vertex="1" parent="Px1lfEAKIi--y_GZq74K-4">
          <mxGeometry width="60" height="60" as="geometry" />
        </mxCell>
        <mxCell id="Px1lfEAKIi--y_GZq74K-3" value="" style="image;aspect=fixed;perimeter=ellipsePerimeter;html=1;align=center;shadow=0;dashed=0;fontColor=#4277BB;labelBackgroundColor=default;fontSize=12;spacingTop=3;image=img/lib/ibm/users/browser.svg;" vertex="1" parent="Px1lfEAKIi--y_GZq74K-4">
          <mxGeometry x="70" width="60" height="60" as="geometry" />
        </mxCell>
        <mxCell id="Px1lfEAKIi--y_GZq74K-6" value="" style="edgeStyle=none;curved=1;rounded=0;orthogonalLoop=1;jettySize=auto;html=1;fontSize=12;startSize=8;endSize=8;entryX=-0.016;entryY=0.44;entryDx=0;entryDy=0;entryPerimeter=0;" edge="1" parent="1" source="Px1lfEAKIi--y_GZq74K-3" target="Px1lfEAKIi--y_GZq74K-5">
          <mxGeometry relative="1" as="geometry">
            <Array as="points">
              <mxPoint x="140" y="165" />
            </Array>
          </mxGeometry>
        </mxCell>
        <mxCell id="Px1lfEAKIi--y_GZq74K-10" value="Apache tomcat" style="sketch=0;outlineConnect=0;fontColor=#232F3E;gradientColor=none;strokeColor=#ffffff;fillColor=#232F3E;dashed=0;verticalLabelPosition=middle;verticalAlign=bottom;align=center;html=1;whiteSpace=wrap;fontSize=10;fontStyle=1;spacing=3;shape=mxgraph.aws4.productIcon;prIcon=mxgraph.aws4.ec2;shadow=0;" vertex="1" parent="1">
          <mxGeometry x="450" y="135" width="85" height="80" as="geometry" />
        </mxCell>
        <mxCell id="Px1lfEAKIi--y_GZq74K-11" value="" style="outlineConnect=0;dashed=0;verticalLabelPosition=bottom;verticalAlign=top;align=center;html=1;shape=mxgraph.aws3.s3;fillColor=#E05243;gradientColor=none;" vertex="1" parent="1">
          <mxGeometry x="580" y="153.5" width="40" height="43" as="geometry" />
        </mxCell>
        <mxCell id="Px1lfEAKIi--y_GZq74K-23" style="edgeStyle=none;curved=1;rounded=0;orthogonalLoop=1;jettySize=auto;html=1;entryX=0.25;entryY=1;entryDx=0;entryDy=0;fontSize=12;startSize=8;endSize=8;startArrow=classicThin;startFill=1;" edge="1" parent="1" source="Px1lfEAKIi--y_GZq74K-18" target="Px1lfEAKIi--y_GZq74K-15">
          <mxGeometry relative="1" as="geometry" />
        </mxCell>
        <mxCell id="Px1lfEAKIi--y_GZq74K-18" value="" style="sketch=0;outlineConnect=0;fontColor=#232F3E;gradientColor=none;fillColor=#C925D1;strokeColor=none;dashed=0;verticalLabelPosition=bottom;verticalAlign=top;align=center;html=1;fontSize=12;fontStyle=0;aspect=fixed;pointerEvents=1;shape=mxgraph.aws4.rds_mysql_instance;" vertex="1" parent="1">
          <mxGeometry x="300.5" y="380" width="58" height="58" as="geometry" />
        </mxCell>
        <mxCell id="Px1lfEAKIi--y_GZq74K-20" style="edgeStyle=orthogonalEdgeStyle;rounded=0;orthogonalLoop=1;jettySize=auto;html=1;entryX=0;entryY=0.5;entryDx=0;entryDy=0;entryPerimeter=0;fontSize=12;startSize=8;endSize=8;" edge="1" parent="1" source="Px1lfEAKIi--y_GZq74K-10" target="Px1lfEAKIi--y_GZq74K-11">
          <mxGeometry relative="1" as="geometry" />
        </mxCell>
        <mxCell id="Px1lfEAKIi--y_GZq74K-27" value="" style="dashed=0;outlineConnect=0;html=1;align=center;labelPosition=center;verticalLabelPosition=bottom;verticalAlign=top;shape=mxgraph.weblogos.aws" vertex="1" parent="1">
          <mxGeometry x="170" y="71.60000000000002" width="63.6" height="58.400000000000006" as="geometry" />
        </mxCell>
        <mxCell id="Px1lfEAKIi--y_GZq74K-28" value="Vertical Container" style="swimlane;whiteSpace=wrap;html=1;" vertex="1" parent="1">
          <mxGeometry x="160" y="40" width="500" height="440" as="geometry" />
        </mxCell>
        <mxCell id="Px1lfEAKIi--y_GZq74K-29" style="edgeStyle=none;curved=1;rounded=0;orthogonalLoop=1;jettySize=auto;html=1;exitX=0.5;exitY=0;exitDx=0;exitDy=0;exitPerimeter=0;fontSize=12;startSize=8;endSize=8;startArrow=classic;startFill=1;" edge="1" parent="Px1lfEAKIi--y_GZq74K-28" source="Px1lfEAKIi--y_GZq74K-12">
          <mxGeometry relative="1" as="geometry">
            <mxPoint x="348.2857142857142" y="180" as="targetPoint" />
          </mxGeometry>
        </mxCell>
        <mxCell id="Px1lfEAKIi--y_GZq74K-12" value="" style="sketch=0;points=[[0,0,0],[0.25,0,0],[0.5,0,0],[0.75,0,0],[1,0,0],[0,1,0],[0.25,1,0],[0.5,1,0],[0.75,1,0],[1,1,0],[0,0.25,0],[0,0.5,0],[0,0.75,0],[1,0.25,0],[1,0.5,0],[1,0.75,0]];outlineConnect=0;fontColor=#232F3E;fillColor=#E7157B;strokeColor=#ffffff;dashed=0;verticalLabelPosition=bottom;verticalAlign=top;align=center;html=1;fontSize=12;fontStyle=0;aspect=fixed;shape=mxgraph.aws4.resourceIcon;resIcon=mxgraph.aws4.mq;" vertex="1" parent="Px1lfEAKIi--y_GZq74K-28">
          <mxGeometry x="307" y="229.91" width="83" height="83" as="geometry" />
        </mxCell>
        <mxCell id="Px1lfEAKIi--y_GZq74K-25" style="edgeStyle=none;curved=1;rounded=0;orthogonalLoop=1;jettySize=auto;html=1;exitX=0.75;exitY=1;exitDx=0;exitDy=0;exitPerimeter=0;fontSize=12;startSize=8;endSize=8;" edge="1" parent="Px1lfEAKIi--y_GZq74K-28" source="Px1lfEAKIi--y_GZq74K-12" target="Px1lfEAKIi--y_GZq74K-12">
          <mxGeometry relative="1" as="geometry" />
        </mxCell>
        <mxCell id="Px1lfEAKIi--y_GZq74K-17" value="" style="group;" vertex="1" connectable="0" parent="Px1lfEAKIi--y_GZq74K-28">
          <mxGeometry x="120" y="241.41000000000003" width="119" height="60" as="geometry" />
        </mxCell>
        <mxCell id="Px1lfEAKIi--y_GZq74K-15" value="" style="strokeColor=#dddddd;shadow=1;strokeWidth=1;rounded=1;absoluteArcSize=1;arcSize=2;" vertex="1" parent="Px1lfEAKIi--y_GZq74K-17">
          <mxGeometry x="37.1875" y="22.816901408450704" width="81.8125" height="37.183098591549296" as="geometry" />
        </mxCell>
        <mxCell id="Px1lfEAKIi--y_GZq74K-16" value="Memcache" style="sketch=0;dashed=0;connectable=0;html=1;fillColor=#757575;strokeColor=none;shape=mxgraph.gcp2.memcache;part=1;labelPosition=right;verticalLabelPosition=middle;align=left;verticalAlign=middle;spacingLeft=5;fontSize=12;" vertex="1" parent="Px1lfEAKIi--y_GZq74K-15">
          <mxGeometry y="0.5" width="32" height="32" relative="1" as="geometry">
            <mxPoint x="5" y="-16" as="offset" />
          </mxGeometry>
        </mxCell>
        <mxCell id="Px1lfEAKIi--y_GZq74K-13" value="" style="strokeColor=#dddddd;shadow=1;strokeWidth=1;rounded=1;absoluteArcSize=1;arcSize=2;" vertex="1" parent="Px1lfEAKIi--y_GZq74K-17">
          <mxGeometry width="81.8125" height="37.183098591549296" as="geometry" />
        </mxCell>
        <mxCell id="Px1lfEAKIi--y_GZq74K-14" value="Memcache" style="sketch=0;dashed=0;connectable=0;html=1;fillColor=#757575;strokeColor=none;shape=mxgraph.gcp2.memcache;part=1;labelPosition=right;verticalLabelPosition=middle;align=left;verticalAlign=middle;spacingLeft=5;fontSize=12;" vertex="1" parent="Px1lfEAKIi--y_GZq74K-13">
          <mxGeometry y="0.5" width="32" height="32" relative="1" as="geometry">
            <mxPoint x="5" y="-16" as="offset" />
          </mxGeometry>
        </mxCell>
        <mxCell id="Px1lfEAKIi--y_GZq74K-22" style="edgeStyle=orthogonalEdgeStyle;rounded=0;orthogonalLoop=1;jettySize=auto;html=1;fontSize=12;startSize=8;endSize=8;startArrow=classic;startFill=1;" edge="1" parent="Px1lfEAKIi--y_GZq74K-28" source="Px1lfEAKIi--y_GZq74K-12" target="Px1lfEAKIi--y_GZq74K-15">
          <mxGeometry relative="1" as="geometry">
            <mxPoint x="180" y="409" as="targetPoint" />
          </mxGeometry>
        </mxCell>
        <mxCell id="Px1lfEAKIi--y_GZq74K-5" value="" style="image;sketch=0;aspect=fixed;html=1;points=[];align=center;fontSize=12;image=img/lib/mscae/Load_Balancer_feature.svg;" vertex="1" parent="Px1lfEAKIi--y_GZq74K-28">
          <mxGeometry x="40" y="114" width="50" height="50" as="geometry" />
        </mxCell>
        <mxCell id="Px1lfEAKIi--y_GZq74K-38" value="" style="group" vertex="1" connectable="0" parent="Px1lfEAKIi--y_GZq74K-28">
          <mxGeometry x="160" y="90" width="48" height="98" as="geometry" />
        </mxCell>
        <mxCell id="Px1lfEAKIi--y_GZq74K-36" value="" style="sketch=0;points=[[0,0,0],[0.25,0,0],[0.5,0,0],[0.75,0,0],[1,0,0],[0,1,0],[0.25,1,0],[0.5,1,0],[0.75,1,0],[1,1,0],[0,0.25,0],[0,0.5,0],[0,0.75,0],[1,0.25,0],[1,0.5,0],[1,0.75,0]];outlineConnect=0;fontColor=#232F3E;fillColor=#ED7100;strokeColor=#ffffff;dashed=0;verticalLabelPosition=bottom;verticalAlign=top;align=center;html=1;fontSize=12;fontStyle=0;aspect=fixed;shape=mxgraph.aws4.resourceIcon;resIcon=mxgraph.aws4.ec2;" vertex="1" parent="Px1lfEAKIi--y_GZq74K-38">
          <mxGeometry width="48" height="48" as="geometry" />
        </mxCell>
        <mxCell id="Px1lfEAKIi--y_GZq74K-37" value="" style="sketch=0;points=[[0,0,0],[0.25,0,0],[0.5,0,0],[0.75,0,0],[1,0,0],[0,1,0],[0.25,1,0],[0.5,1,0],[0.75,1,0],[1,1,0],[0,0.25,0],[0,0.5,0],[0,0.75,0],[1,0.25,0],[1,0.5,0],[1,0.75,0]];outlineConnect=0;fontColor=#232F3E;fillColor=#ED7100;strokeColor=#ffffff;dashed=0;verticalLabelPosition=bottom;verticalAlign=top;align=center;html=1;fontSize=12;fontStyle=0;aspect=fixed;shape=mxgraph.aws4.resourceIcon;resIcon=mxgraph.aws4.ec2;" vertex="1" parent="Px1lfEAKIi--y_GZq74K-38">
          <mxGeometry y="50" width="48" height="48" as="geometry" />
        </mxCell>
        <mxCell id="Px1lfEAKIi--y_GZq74K-39" style="edgeStyle=orthogonalEdgeStyle;rounded=0;orthogonalLoop=1;jettySize=auto;html=1;fontSize=12;startSize=8;endSize=8;" edge="1" parent="Px1lfEAKIi--y_GZq74K-28">
          <mxGeometry relative="1" as="geometry">
            <mxPoint x="160" y="100" as="sourcePoint" />
            <mxPoint x="70" y="113" as="targetPoint" />
            <Array as="points">
              <mxPoint x="70" y="100" />
            </Array>
          </mxGeometry>
        </mxCell>
        <mxCell id="Px1lfEAKIi--y_GZq74K-41" style="edgeStyle=orthogonalEdgeStyle;rounded=0;orthogonalLoop=1;jettySize=auto;html=1;exitX=0;exitY=0.5;exitDx=0;exitDy=0;exitPerimeter=0;entryX=0.491;entryY=0.986;entryDx=0;entryDy=0;entryPerimeter=0;fontSize=12;startSize=8;endSize=8;" edge="1" parent="Px1lfEAKIi--y_GZq74K-28" source="Px1lfEAKIi--y_GZq74K-37" target="Px1lfEAKIi--y_GZq74K-5">
          <mxGeometry relative="1" as="geometry">
            <Array as="points">
              <mxPoint x="160" y="180" />
              <mxPoint x="65" y="180" />
            </Array>
          </mxGeometry>
        </mxCell>
        <mxCell id="Px1lfEAKIi--y_GZq74K-42" style="edgeStyle=none;curved=1;rounded=0;orthogonalLoop=1;jettySize=auto;html=1;exitX=1;exitY=1;exitDx=0;exitDy=0;exitPerimeter=0;fontSize=12;startSize=8;endSize=8;" edge="1" parent="1" source="Px1lfEAKIi--y_GZq74K-36" target="Px1lfEAKIi--y_GZq74K-10">
          <mxGeometry relative="1" as="geometry" />
        </mxCell>
      </root>
    </mxGraphModel>
  </diagram>
</mxfile>
